<svg width="18" height="18" viewBox="0 0 18 18" fill="none" xmlns="http://www.w3.org/2000/svg">
<path fill-rule="evenodd" clip-rule="evenodd" d="M16.875 9C16.875 13.3492 13.3492 16.875 9 16.875C4.65076 16.875 1.125 13.3492 1.125 9C1.125 4.65076 4.65076 1.125 9 1.125C13.3492 1.125 16.875 4.65076 16.875 9Z" fill="#FF4A00"/>
<path fill-rule="evenodd" clip-rule="evenodd" d="M9 5.0625C7.75004 5.0625 6.73676 6.08523 6.73676 7.34685V10.593C6.73676 10.8919 6.4968 11.1341 6.20074 11.1341C5.90469 11.1341 5.66471 10.8919 5.66471 10.593V9.15029H3.9375V10.6531C3.9375 11.9148 4.95079 12.9375 6.20074 12.9375C7.4507 12.9375 8.46397 11.9148 8.46397 10.6531V7.34685C8.46397 7.04802 8.70393 6.80582 9 6.80582C9.29607 6.80582 9.53603 7.04802 9.53603 7.34685V8.00811L10.3358 8.44598L11.2632 8.00811V7.34685C11.2632 6.08523 10.25 5.0625 9 5.0625ZM9.53603 9.18034V10.6531C9.53603 11.9148 10.5493 12.9375 11.7993 12.9375C13.0492 12.9375 14.0625 11.9148 14.0625 10.6531V9.2104H12.3353V10.6531C12.3353 10.952 12.0953 11.1942 11.7993 11.1942C11.5032 11.1942 11.2632 10.952 11.2632 10.6531V9.18034L10.2507 9.51097L9.53603 9.18034Z" fill="white"/>
<path fill-rule="evenodd" clip-rule="evenodd" d="M9 13.5C10.25 13.5 11.2632 12.4773 11.2632 11.2156L11.2632 7.96947C11.2632 7.67064 11.5032 7.42844 11.7993 7.42844C12.0953 7.42844 12.3353 7.67064 12.3353 7.96947L12.3353 9.41221L14.0625 9.41221L14.0625 7.90935C14.0625 6.64773 13.0492 5.625 11.7993 5.625C10.5493 5.625 9.53603 6.64773 9.53603 7.90935L9.53603 11.2156C9.53603 11.5145 9.29607 11.7567 9 11.7567C8.70393 11.7567 8.46397 11.5145 8.46397 11.2156L8.46397 10.5544L7.66418 10.1165L6.73676 10.5544L6.73676 11.2156C6.73676 12.4773 7.75004 13.5 9 13.5ZM8.46397 9.38216L8.46397 7.90935C8.46397 6.64773 7.4507 5.625 6.20074 5.625C4.95077 5.625 3.9375 6.64773 3.9375 7.90935L3.9375 9.3521L5.66471 9.3521L5.66471 7.90935C5.66471 7.61052 5.90467 7.36832 6.20074 7.36832C6.4968 7.36832 6.73677 7.61052 6.73677 7.90935L6.73677 9.38216L7.74927 9.05153L8.46397 9.38216Z" fill="white"/>
</svg>
