<svg width="21" height="21" viewBox="0 0 21 21" fill="none" xmlns="http://www.w3.org/2000/svg">
<path fill-rule="evenodd" clip-rule="evenodd" d="M4.88373 3.48524C5.91075 2.25651 7.71787 0.991211 10.2091 0.991211C11.4117 0.991211 12.3192 1.30531 12.3284 1.30849L12.3328 1.30655C14.0522 1.86096 15.524 3.02481 16.4141 4.7411L16.4128 4.74269C16.4285 4.76946 17.199 6.09672 17.199 8.00186C17.199 10.0594 16.4016 11.5327 16.4016 11.5327C15.8456 12.682 14.708 14.0945 14.2535 14.6588L14.2534 14.6589C14.1775 14.7531 14.1207 14.8237 14.0888 14.8655C13.2654 15.8964 12.4276 16.969 11.7532 18.1761C11.4096 18.8013 11.1917 19.4631 10.9141 20.3301C10.7805 20.7284 10.6075 20.9859 10.2261 20.9859C9.87612 20.9859 9.71333 20.8345 9.53325 20.3273C9.23954 19.4092 9.07204 18.8925 8.67019 18.1305C8.19954 17.3203 7.67309 16.5439 7.09466 15.8068L7.09509 15.8043C6.83262 15.45 6.53649 15.0825 6.22931 14.7012C5.39576 13.6665 4.48073 12.5308 3.93535 11.285C3.93535 11.285 3.24805 9.93913 3.24805 7.98928C3.24805 6.14638 3.96445 4.53546 4.88373 3.48524ZM8.16926 6.25003L8.17083 6.25136L8.15698 6.26783C8.06715 6.37763 7.55824 7.04066 7.55824 7.96844C7.55824 9.45235 8.74883 10.6292 10.2225 10.6292C11.2341 10.6292 11.8986 10.0716 12.1555 9.80901L12.275 9.67293L12.3242 9.61131C12.4681 9.41944 12.8888 8.78703 12.8888 7.94878C12.8888 6.43026 11.6101 5.2959 10.2288 5.2959C8.92262 5.2959 8.17241 6.24821 8.17241 6.24821V6.24629L8.16926 6.25003Z" fill="#2F2F2F"/>
</svg>
