<svg width="24" height="24" viewBox="0 0 24 24" fill="none" xmlns="http://www.w3.org/2000/svg">
<path fill-rule="evenodd" clip-rule="evenodd" d="M22.5 12C22.5 17.799 17.799 22.5 12 22.5C6.20101 22.5 1.5 17.799 1.5 12C1.5 6.20101 6.20101 1.5 12 1.5C17.799 1.5 22.5 6.20101 22.5 12Z" fill="#FF4A00"/>
<path fill-rule="evenodd" clip-rule="evenodd" d="M17.625 12.375C17.625 10.7084 16.2614 9.35735 14.5792 9.35735L10.251 9.35735C9.85252 9.35735 9.52958 9.0374 9.52958 8.64265C9.52958 8.24792 9.85252 7.92794 10.251 7.92794L12.1746 7.92794L12.1746 5.625L10.1708 5.625C8.48864 5.625 7.125 6.97605 7.125 8.64265C7.125 10.3093 8.48864 11.6603 10.1708 11.6603L14.5792 11.6603C14.9776 11.6603 15.3006 11.9802 15.3006 12.375C15.3006 12.7698 14.9776 13.0897 14.5792 13.0897L13.6975 13.0897L13.1137 14.1561L13.6975 15.3926L14.5792 15.3926C16.2614 15.3926 17.625 14.0416 17.625 12.375ZM12.1345 13.0897L10.1708 13.0897C8.48864 13.0897 7.125 14.4407 7.125 16.1074C7.125 17.774 8.48864 19.125 10.1708 19.125L12.0945 19.125L12.0945 16.8221L10.1708 16.8221C9.77236 16.8221 9.44943 16.5021 9.44943 16.1074C9.44943 15.7126 9.77236 15.3926 10.1708 15.3926L12.1345 15.3926L11.6937 14.0426L12.1345 13.0897Z" fill="white"/>
<path fill-rule="evenodd" clip-rule="evenodd" d="M6.375 12.375C6.375 14.0416 7.73864 15.3926 9.4208 15.3926L13.749 15.3926C14.1475 15.3926 14.4704 15.7126 14.4704 16.1074C14.4704 16.5021 14.1475 16.8221 13.749 16.8221L11.8254 16.8221L11.8254 19.125L13.8292 19.125C15.5114 19.125 16.875 17.774 16.875 16.1074C16.875 14.4407 15.5114 13.0897 13.8292 13.0897L9.4208 13.0897C9.02236 13.0897 8.69943 12.7698 8.69943 12.375C8.69943 11.9802 9.02236 11.6603 9.4208 11.6603L10.3025 11.6603L10.8863 10.5939L10.3025 9.35735L9.4208 9.35735C7.73864 9.35735 6.375 10.7084 6.375 12.375ZM11.8655 11.6603L13.8292 11.6603C15.5114 11.6603 16.875 10.3093 16.875 8.64265C16.875 6.97603 15.5114 5.625 13.8292 5.625L11.9055 5.625L11.9055 7.92794L13.8292 7.92794C14.2276 7.92794 14.5506 8.24789 14.5506 8.64265C14.5506 9.0374 14.2276 9.35735 13.8292 9.35735L11.8655 9.35735L12.3063 10.7074L11.8655 11.6603Z" fill="white"/>
</svg>
