<svg width="75" height="12" viewBox="0 0 75 12" fill="none" xmlns="http://www.w3.org/2000/svg">
<path d="M0.5 9.26631V9.0738L3.48179 4.44064C3.57333 4.29947 3.67796 4.17112 3.79566 4.02995H0.643858V2.59251H6.50281V2.78503L3.49486 7.49519C3.42947 7.6107 3.33793 7.71337 3.24638 7.82888H6.43742V9.26631H0.5Z" fill="black"/>
<path d="M10.4157 9.43316C8.54553 9.43316 7.05464 7.88021 7.05464 5.95508C7.05464 4.02995 8.54553 2.45134 10.4157 2.45134C11.5927 2.45134 12.2074 2.9262 12.5736 3.64492V2.59251H14.326V9.26631H12.6128V8.1754C12.2466 8.93262 11.6319 9.43316 10.4157 9.43316ZM8.82017 5.94225C8.82017 6.95615 9.57869 7.86738 10.7034 7.86738C11.8673 7.86738 12.6128 6.99465 12.6128 5.95508C12.6128 4.91551 11.8673 4.01711 10.7034 4.01711C9.57869 4.01711 8.82017 4.90267 8.82017 5.94225Z" fill="black"/>
<path d="M18.0822 9.26631L15.2442 2.59251H17.3367L18.6968 6.40428C18.8145 6.72513 18.9192 7.12299 18.9845 7.46952C19.0499 7.12299 19.1546 6.72513 19.2723 6.40428L20.6324 2.59251H22.6856L19.8608 9.26631H18.0822Z" fill="black"/>
<path d="M23.6019 9.26631V2.59251H25.3674V9.26631H23.6019ZM23.4188 1.0139C23.4188 0.462032 23.8765 0 24.4781 0C25.0928 0 25.5374 0.462032 25.5374 1.0139C25.5374 1.59144 25.0928 2.04064 24.4781 2.04064C23.8765 2.04064 23.4188 1.57861 23.4188 1.0139Z" fill="black"/>
<path d="M30.0996 9.43316C28.2295 9.43316 26.7386 7.88021 26.7386 5.95508C26.7386 4.02995 28.2295 2.45134 30.0996 2.45134C31.2766 2.45134 31.8913 2.9262 32.2575 3.64492V2.59251H34.0099V9.26631H32.2967V8.1754C31.9305 8.93262 31.3159 9.43316 30.0996 9.43316ZM28.5041 5.94225C28.5041 6.95615 29.2626 7.86738 30.3873 7.86738C31.5513 7.86738 32.2967 6.99465 32.2967 5.95508C32.2967 4.91551 31.5513 4.01711 30.3873 4.01711C29.2626 4.01711 28.5041 4.90267 28.5041 5.94225Z" fill="black"/>
<path d="M38.9562 12C37.583 12 36.5106 11.6791 35.6998 10.7422L36.7983 9.47166C37.4391 10.1904 38.1192 10.3957 38.9693 10.3957C39.9109 10.3957 40.7348 9.6385 40.7348 8.57326V8.27808C40.3686 8.89412 39.7801 9.30481 38.6816 9.30481C36.8114 9.30481 35.3859 7.79037 35.3859 5.86524C35.3859 3.94011 36.8114 2.42567 38.6816 2.42567C39.8063 2.42567 40.4079 2.8492 40.761 3.50374V2.59251H42.5003V8.67594C42.5003 10.7294 41.0356 12 38.9562 12ZM37.1514 5.86524C37.1514 6.87914 37.8184 7.7262 38.9693 7.7262C40.1332 7.7262 40.8133 6.90481 40.8133 5.86524C40.8133 4.82567 40.1332 4.00428 38.9693 4.00428C37.8184 4.00428 37.1514 4.82567 37.1514 5.86524Z" fill="black"/>
<path d="M47.4898 9.43316C45.3842 9.43316 43.8672 7.86738 43.8672 5.94225C43.8672 4.01711 45.3842 2.4385 47.4898 2.4385C49.5954 2.4385 51.1124 4.01711 51.1124 5.94225C51.1124 7.86738 49.5954 9.43316 47.4898 9.43316ZM45.6327 5.94225C45.6327 6.98182 46.3651 7.85455 47.4898 7.85455C48.6145 7.85455 49.3469 6.98182 49.3469 5.94225C49.3469 4.90267 48.6145 4.01711 47.4898 4.01711C46.3651 4.01711 45.6327 4.90267 45.6327 5.94225Z" fill="black"/>
<path d="M53.0578 9.39144C52.5477 9.39144 52.175 9.00642 52.175 8.54438C52.175 8.09198 52.5477 7.70695 53.0578 7.70695C53.5678 7.70695 53.9307 8.09198 53.9307 8.54438C53.9307 9.00642 53.5678 9.39144 53.0578 9.39144Z" fill="black"/>
<path d="M57.2178 9.39144C55.7563 9.39144 54.5891 8.21711 54.5891 6.76364C54.5891 5.31016 55.7269 4.14545 57.2865 4.13583C58.2183 4.1262 58.9735 4.48235 59.4051 5.06952L58.385 5.8877C58.1496 5.54118 57.7573 5.31979 57.3061 5.31979C56.4625 5.31979 55.9133 5.98396 55.9133 6.76364C55.9133 7.54332 56.492 8.20749 57.3355 8.20749C57.8455 8.20749 58.179 7.95722 58.4439 7.6107L59.4051 8.42888C58.9245 9.03529 58.2183 9.39144 57.2178 9.39144Z" fill="black"/>
<path d="M62.5655 9.39144C60.9863 9.39144 59.8485 8.21711 59.8485 6.77326C59.8485 5.32941 60.9863 4.14545 62.5655 4.14545C64.1447 4.14545 65.2825 5.32941 65.2825 6.77326C65.2825 8.21711 64.1447 9.39144 62.5655 9.39144ZM61.1727 6.77326C61.1727 7.55294 61.722 8.20749 62.5655 8.20749C63.409 8.20749 63.9583 7.55294 63.9583 6.77326C63.9583 5.99358 63.409 5.32941 62.5655 5.32941C61.722 5.32941 61.1727 5.99358 61.1727 6.77326Z" fill="black"/>
<path d="M66.3099 9.26631V4.26096H67.6144V4.99251C67.8793 4.43423 68.3893 4.14545 69.174 4.14545C69.89 4.14545 70.4981 4.48235 70.8316 5.08877C71.1749 4.48235 71.6653 4.14545 72.5579 4.14545C73.6565 4.14545 74.5 4.94438 74.5 6.20535V9.26631H73.1758V6.52299C73.1758 5.65668 72.7541 5.28128 72.1558 5.28128C71.5378 5.28128 71.1161 5.56043 71.1161 6.52299V9.26631H69.7919V6.52299C69.7919 5.65668 69.3505 5.28128 68.6934 5.28128C68.1343 5.28128 67.634 5.65668 67.634 6.52299V9.26631H66.3099Z" fill="black"/>
</svg>
